<svg xmlns="http://www.w3.org/2000/svg" viewBox="85.28 86.35 822.77 87.17" fill="currentColor"><path d="M386.76,113.37C386.76,113.99 386.72,114.38 386.68,114.6C386.64,114.82 386.57,115.03 386.47,115.24C386.42,115.35 386.36,115.43 386.3,115.49C386.21,115.57 386.11,115.64 385.99,115.7C385.76,115.79 385.52,115.87 385.26,115.91C385.02,115.95 384.59,116 383.94,116L363.88,116C363.35,116 362.9,115.96 362.55,115.91C362.3,115.87 362.06,115.79 361.83,115.7C361.71,115.64 361.61,115.57 361.54,115.52C361.46,115.43 361.4,115.35 361.35,115.24C361.25,115.03 361.18,114.82 361.14,114.6C361.1,114.38 361.05,113.98 361.05,113.37L361.05,99.67C361.05,99.05 361.1,98.66 361.14,98.44C361.18,98.21 361.25,98 361.35,97.79C361.4,97.69 361.46,97.61 361.52,97.55C361.61,97.46 361.71,97.39 361.83,97.34C362.06,97.24 362.3,97.17 362.55,97.13C362.9,97.07 363.35,97.04 363.88,97.04L383.94,97.04C384.59,97.04 385.02,97.09 385.26,97.13C385.52,97.17 385.76,97.24 385.99,97.34C386.11,97.39 386.21,97.46 386.28,97.52C386.36,97.61 386.42,97.69 386.47,97.79C386.57,98 386.64,98.21 386.68,98.44C386.72,98.66 386.76,99.05 386.76,99.67L386.76,113.37ZM393.94,97.18C393.79,96.33 393.53,95.51 393.16,94.72C392.74,93.83 392.16,93.03 391.43,92.32C390.71,91.64 389.88,91.09 388.98,90.7C388.18,90.35 387.34,90.1 386.48,89.96C385.72,89.83 384.89,89.77 383.94,89.77L363.88,89.77C362.93,89.77 362.1,89.83 361.33,89.96C360.47,90.1 359.64,90.35 358.84,90.7C357.93,91.09 357.11,91.64 356.36,92.34C355.65,93.04 355.08,93.84 354.66,94.73C354.29,95.5 354.03,96.33 353.87,97.18C353.74,97.91 353.68,98.75 353.68,99.67L353.68,151.58L361.05,151.58L361.05,123.01C361.15,123.03 361.24,123.06 361.33,123.08C362.1,123.2 362.93,123.26 363.88,123.26L364.39,123.26L385.26,151.42L393.83,151.42L372.95,123.26L383.94,123.26C384.89,123.26 385.72,123.2 386.48,123.08C387.34,122.94 388.18,122.69 388.97,122.34C389.88,121.94 390.71,121.4 391.45,120.69C392.16,120 392.74,119.2 393.16,118.31C393.53,117.52 393.79,116.7 393.94,115.86C394.07,115.12 394.14,114.3 394.14,113.37L394.14,99.67C394.14,98.73 394.07,97.92 393.94,97.18"/><path d="M476.79,109.62C476.79,106.76 478.66,105.1 481.2,105.1C483.54,105.1 485.62,106.76 485.62,109.62C485.62,112.49 483.54,114.15 481.2,114.15C478.66,114.15 476.79,112.49 476.79,109.62"/><path d="M509.32,109.62C509.32,106.76 511.19,105.1 513.73,105.1C516.07,105.1 518.15,106.76 518.15,109.62C518.15,112.49 516.07,114.15 513.73,114.15C511.19,114.15 509.32,112.49 509.32,109.62"/><path d="M628.29,153.63L612.13,153.63C611.17,153.63 610.3,153.56 609.52,153.42C608.64,153.26 607.79,152.98 606.98,152.59C606.08,152.16 605.26,151.56 604.56,150.82C603.84,150.06 603.29,149.22 602.89,148.28C602.54,147.47 602.29,146.6 602.14,145.72C602.08,145.32 601.91,140.35 601.91,135.58C601.91,131.14 602.09,126.88 602.15,126.49C602.29,125.62 602.54,124.76 602.89,123.94C603.29,123 603.84,122.16 604.53,121.43C605.25,120.67 606.07,120.07 606.98,119.63C607.79,119.25 608.64,118.97 609.52,118.81C610.3,118.66 611.16,118.6 612.13,118.6L628.29,118.6L628.29,125.65L612.13,125.65C611.46,125.65 611.03,125.7 610.78,125.74C610.53,125.8 610.28,125.87 610.04,125.99C609.9,126.06 609.77,126.15 609.66,126.27C609.55,126.39 609.45,126.54 609.37,126.72C609.25,127.01 609.13,127.39 609.11,127.63C608.77,134.3 608.77,138.68 609.11,144.59C609.12,144.93 609.25,145.21 609.37,145.51C609.45,145.69 609.55,145.84 609.68,145.98C609.77,146.07 609.89,146.16 610.03,146.23C610.28,146.35 610.52,146.43 610.78,146.47C611.03,146.52 611.46,146.57 612.13,146.57L628.29,146.57L628.29,153.63Z"/><path d="M468.14,140.21C467.98,139.31 467.71,138.42 467.33,137.58C466.9,136.63 466.31,135.77 465.56,135.02C464.82,134.28 463.96,133.69 463.01,133.26C462.17,132.89 461.29,132.61 460.38,132.46C459.86,132.37 459.27,132.32 458.65,132.28L458.65,132.25L447.76,132.25C447.19,132.25 446.71,132.21 446.32,132.14C446.04,132.09 445.77,132.01 445.5,131.89C445.34,131.82 445.2,131.72 445.1,131.62C444.97,131.5 444.88,131.36 444.81,131.2C444.68,130.93 444.6,130.66 444.55,130.37C444.49,129.99 444.45,129.5 444.45,128.94C444.45,128.37 444.49,127.89 444.55,127.51C444.6,127.22 444.68,126.95 444.81,126.68C444.88,126.52 444.97,126.38 445.07,126.28C445.2,126.16 445.34,126.06 445.5,125.99C445.77,125.87 446.04,125.78 446.33,125.73C446.71,125.67 447.19,125.64 447.76,125.64L465.7,125.64L465.7,118.66L447.76,118.58C446.78,118.58 445.92,118.65 445.13,118.79C444.25,118.94 443.4,119.2 442.58,119.57C441.66,119.99 440.83,120.56 440.09,121.3C439.38,122.02 438.8,122.85 438.39,123.76C438.02,124.58 437.75,125.44 437.6,126.31C437.47,127.09 437.4,127.97 437.4,128.94C437.4,129.9 437.47,130.79 437.6,131.57C437.75,132.44 438.02,133.3 438.39,134.11C438.8,135.03 439.38,135.86 440.11,136.61C440.83,137.32 441.67,137.89 442.59,138.31C443.4,138.68 444.26,138.94 445.13,139.09C445.91,139.23 446.79,139.29 447.76,139.29L457.66,139.29L457.66,139.3C458.26,139.3 458.78,139.33 459.19,139.41C459.51,139.46 459.8,139.55 460.1,139.69C460.29,139.77 460.45,139.88 460.57,140C460.72,140.15 460.83,140.31 460.91,140.49C461.04,140.79 461.14,141.09 461.19,141.41C461.26,141.82 461.3,142.33 461.3,142.93C461.3,143.54 461.26,144.05 461.19,144.46C461.14,144.78 461.04,145.08 460.91,145.37C460.83,145.56 460.72,145.72 460.6,145.84C460.45,145.98 460.29,146.1 460.1,146.18C459.81,146.31 459.51,146.41 459.19,146.46C458.78,146.53 458.26,146.57 457.66,146.57L440.05,146.57L440.05,153.62L457.66,153.62C458.66,153.62 459.58,153.55 460.38,153.41C461.29,153.25 462.17,152.98 463.02,152.6C463.96,152.17 464.81,151.59 465.58,150.82C466.32,150.08 466.9,149.23 467.33,148.28C467.71,147.44 467.98,146.56 468.14,145.66C468.28,144.84 468.35,143.96 468.35,142.93C468.35,141.91 468.28,141.02 468.14,140.21Z"/><path d="M595.88,126.5C595.73,125.62 595.48,124.76 595.13,123.94C594.73,123 594.18,122.16 593.47,121.4C592.77,120.67 591.95,120.08 591.04,119.63C590.23,119.24 589.38,118.97 588.5,118.81C587.73,118.67 586.85,118.6 585.9,118.6L572.17,118.6L572.17,118.6L565.11,118.6L565.11,153.63L572.17,153.63L572.17,129.79L572.2,129.79C572.21,129.48 572.23,129.19 572.28,128.92C572.34,128.53 572.45,128.15 572.61,127.78C572.77,127.42 572.98,127.09 573.25,126.8C573.52,126.51 573.83,126.29 574.18,126.12C574.52,125.96 574.89,125.84 575.26,125.77C575.63,125.71 576.07,125.67 576.56,125.67L584.63,125.67C585.13,125.67 585.56,125.71 585.93,125.77C586.31,125.84 586.67,125.96 587.01,126.12C587.36,126.29 587.67,126.51 587.95,126.8C588.21,127.09 588.43,127.42 588.58,127.78C588.74,128.15 588.85,128.53 588.91,128.92C588.96,129.19 588.98,129.48 588.99,129.79L589.02,129.79L589.02,153.63L596.07,153.63L596.07,129.15C596.07,128.16 596.01,127.29 595.88,126.5Z"/><path d="M660.69,129.83L660.69,128.53L660.69,130.15C660.69,130.46 660.66,130.73 660.62,130.97C660.59,131.2 660.52,131.43 660.42,131.64C660.32,131.86 660.19,132.05 660.02,132.22C659.85,132.39 659.65,132.52 659.43,132.62C659.22,132.72 658.99,132.79 658.76,132.83C658.52,132.87 658.25,132.89 657.94,132.89L654.73,132.89L654.73,132.89L646.05,132.89L646.05,132.89L644.37,132.89C644.06,132.89 643.79,132.87 643.56,132.83C643.32,132.79 643.1,132.72 642.88,132.62C642.66,132.52 642.47,132.39 642.3,132.22C642.13,132.05 642,131.86 641.9,131.64C641.8,131.43 641.73,131.2 641.69,130.97C641.65,130.73 641.63,130.46 641.63,130.15L641.63,128.53L641.62,129.83L641.62,128.21C641.62,127.9 641.64,127.63 641.68,127.39C641.72,127.16 641.79,126.93 641.89,126.72C641.99,126.5 642.13,126.31 642.29,126.14C642.46,125.97 642.66,125.84 642.87,125.74C643.09,125.64 643.32,125.57 643.55,125.53C643.79,125.49 644.06,125.47 644.36,125.47L646.05,125.47L646.05,125.47L654.73,125.47L654.73,125.47L657.95,125.47C658.26,125.47 658.53,125.49 658.76,125.53C659,125.57 659.22,125.64 659.44,125.74C659.66,125.84 659.85,125.97 660.02,126.14C660.19,126.31 660.32,126.5 660.42,126.72C660.52,126.93 660.59,127.16 660.63,127.39C660.67,127.63 660.69,127.9 660.69,128.21L660.69,129.83ZM667.76,126.3C667.61,125.44 667.35,124.6 666.99,123.81C666.58,122.9 666.01,122.08 665.28,121.34C664.55,120.62 663.71,120.05 662.77,119.62C661.94,119.24 661.06,118.97 660.16,118.82C659.36,118.68 658.46,118.61 657.48,118.61C657.48,118.61 654.36,118.58 651.72,118.58C649.07,118.58 644.97,118.61 644.97,118.61C643.97,118.61 643.09,118.68 642.28,118.82C641.38,118.97 640.5,119.24 639.67,119.62C638.73,120.05 637.89,120.63 637.14,121.36C636.43,122.08 635.87,122.9 635.45,123.81C635.09,124.6 634.83,125.44 634.69,126.29C634.62,126.66 634.45,130.8 634.44,135.12C634.44,139.75 634.62,144.57 634.69,144.97C634.83,145.83 635.09,146.66 635.45,147.46C635.87,148.37 636.43,149.18 637.17,149.93C637.9,150.65 638.74,151.22 639.67,151.64C640.5,152.02 641.38,152.29 642.29,152.44C643.09,152.58 643.99,152.65 644.97,152.65L664.87,152.65L664.87,145.8L644.29,145.8C643.99,145.8 643.73,145.78 643.5,145.74C643.27,145.7 643.05,145.63 642.84,145.54C642.62,145.44 642.43,145.31 642.27,145.14C642.1,144.98 641.97,144.79 641.87,144.57C641.78,144.36 641.71,144.14 641.67,143.91C641.63,143.68 641.61,143.42 641.61,143.12L641.61,142.8L641.61,142.74L641.61,142.43C641.61,142.12 641.63,141.86 641.67,141.63C641.71,141.4 641.78,141.18 641.87,140.97C641.97,140.76 642.1,140.57 642.27,140.4C642.43,140.24 642.62,140.11 642.84,140.01C643.05,139.91 643.27,139.84 643.5,139.81C643.73,139.77 643.99,139.75 644.29,139.75L657.53,139.75C658.49,139.74 659.37,139.68 660.16,139.54C661.06,139.38 661.94,139.12 662.78,138.74C663.71,138.32 664.55,137.74 665.31,137C666.01,136.28 666.58,135.46 666.99,134.56C667.35,133.76 667.61,132.92 667.76,132.07C667.89,131.3 667.96,130.46 667.96,129.49L667.96,128.87C667.96,127.9 667.89,127.06 667.76,126.3"/><path d="M552.6,129.83L552.59,128.53L552.59,130.15C552.59,130.46 552.57,130.73 552.53,130.97C552.49,131.2 552.42,131.43 552.32,131.64C552.22,131.86 552.09,132.05 551.92,132.22C551.75,132.39 551.56,132.52 551.34,132.62C551.12,132.72 550.9,132.79 550.66,132.83C550.43,132.87 550.16,132.89 549.85,132.89L546.64,132.89L546.64,132.89L537.95,132.89L537.95,132.89L536.28,132.89C535.97,132.89 535.7,132.87 535.46,132.83C535.23,132.79 535,132.72 534.79,132.62C534.57,132.52 534.37,132.39 534.2,132.22C534.03,132.05 533.9,131.86 533.8,131.64C533.7,131.43 533.63,131.2 533.6,130.97C533.56,130.73 533.54,130.46 533.54,130.15L533.54,128.53L533.53,129.83L533.53,128.21C533.53,127.9 533.55,127.63 533.59,127.39C533.63,127.16 533.7,126.93 533.8,126.72C533.9,126.5 534.03,126.31 534.2,126.14C534.37,125.97 534.56,125.84 534.78,125.74C535,125.64 535.22,125.57 535.46,125.53C535.69,125.49 535.96,125.47 536.27,125.47L537.95,125.47L537.95,125.47L546.64,125.47L546.64,125.47L549.86,125.47C550.16,125.47 550.43,125.49 550.67,125.53C550.9,125.57 551.13,125.64 551.35,125.74C551.56,125.84 551.76,125.97 551.93,126.14C552.1,126.31 552.23,126.5 552.33,126.72C552.43,126.93 552.5,127.16 552.54,127.39C552.58,127.63 552.6,127.9 552.6,128.21L552.6,129.83ZM559.67,126.3C559.52,125.44 559.26,124.6 558.9,123.81C558.49,122.9 557.92,122.08 557.19,121.34C556.46,120.62 555.62,120.05 554.68,119.62C553.84,119.24 552.97,118.97 552.06,118.82C551.27,118.68 550.36,118.61 549.38,118.61C549.38,118.61 546.27,118.58 543.63,118.58C540.98,118.58 536.88,118.61 536.88,118.61C535.88,118.61 535,118.68 534.19,118.82C533.29,118.97 532.41,119.24 531.58,119.62C530.64,120.05 529.79,120.63 529.05,121.36C528.34,122.08 527.77,122.9 527.36,123.81C527,124.6 526.74,125.44 526.59,126.29C526.53,126.66 526.35,130.8 526.35,135.12C526.35,139.75 526.52,144.57 526.59,144.97C526.74,145.83 527,146.66 527.36,147.46C527.77,148.37 528.34,149.18 529.08,149.93C529.8,150.65 530.65,151.22 531.57,151.64C532.41,152.02 533.29,152.29 534.2,152.44C534.99,152.58 535.9,152.65 536.88,152.65L556.77,152.65L556.77,145.8L536.2,145.8C535.9,145.8 535.63,145.78 535.4,145.74C535.18,145.7 534.96,145.63 534.74,145.54C534.53,145.44 534.34,145.31 534.17,145.14C534.01,144.98 533.88,144.79 533.78,144.57C533.68,144.36 533.61,144.14 533.57,143.91C533.54,143.68 533.52,143.42 533.52,143.12L533.51,142.8L533.51,142.74L533.52,142.43C533.52,142.12 533.54,141.86 533.57,141.63C533.61,141.4 533.68,141.18 533.78,140.97C533.88,140.76 534.01,140.57 534.17,140.4C534.34,140.24 534.53,140.11 534.74,140.01C534.96,139.91 535.18,139.84 535.4,139.81C535.63,139.77 535.9,139.75 536.2,139.75L549.43,139.75C550.4,139.74 551.28,139.68 552.07,139.54C552.97,139.38 553.85,139.12 554.68,138.74C555.62,138.32 556.46,137.74 557.22,137C557.92,136.28 558.48,135.46 558.9,134.56C559.26,133.76 559.52,132.92 559.67,132.07C559.8,131.3 559.87,130.46 559.87,129.49L559.87,128.87C559.87,127.9 559.8,127.06 559.67,126.3"/><path d="M424.9,129.83L424.9,128.53L424.9,130.15C424.9,130.46 424.88,130.73 424.84,130.97C424.8,131.2 424.73,131.43 424.63,131.64C424.53,131.86 424.4,132.05 424.23,132.22C424.06,132.39 423.86,132.52 423.65,132.62C423.43,132.72 423.2,132.79 422.97,132.83C422.74,132.87 422.47,132.89 422.16,132.89L418.95,132.89L418.95,132.89L410.26,132.89L410.26,132.89L408.58,132.89C408.27,132.89 408,132.87 407.77,132.83C407.53,132.79 407.31,132.72 407.09,132.62C406.87,132.52 406.68,132.39 406.51,132.22C406.34,132.05 406.21,131.86 406.11,131.64C406.01,131.43 405.94,131.2 405.9,130.97C405.86,130.73 405.84,130.46 405.84,130.15L405.84,128.53L405.84,129.83L405.84,128.21C405.84,127.9 405.86,127.63 405.9,127.39C405.94,127.16 406.01,126.93 406.11,126.72C406.21,126.5 406.34,126.31 406.5,126.14C406.67,125.97 406.87,125.84 407.09,125.74C407.3,125.64 407.53,125.57 407.76,125.53C408,125.49 408.27,125.47 408.58,125.47L410.26,125.47L410.26,125.47L418.95,125.47L418.95,125.47L422.16,125.47C422.47,125.47 422.74,125.49 422.97,125.53C423.21,125.57 423.43,125.64 423.65,125.74C423.87,125.84 424.06,125.97 424.23,126.14C424.4,126.31 424.53,126.5 424.63,126.72C424.73,126.93 424.8,127.16 424.84,127.39C424.88,127.63 424.9,127.9 424.9,128.21L424.9,129.83ZM431.97,126.3C431.82,125.44 431.57,124.6 431.21,123.81C430.79,122.9 430.22,122.08 429.49,121.34C428.76,120.62 427.92,120.05 426.98,119.62C426.15,119.24 425.27,118.97 424.37,118.82C423.57,118.68 422.67,118.61 421.69,118.61C421.69,118.61 418.58,118.58 415.93,118.58C413.29,118.58 409.19,118.61 409.19,118.61C408.18,118.61 407.3,118.68 406.5,118.82C405.59,118.97 404.72,119.24 403.88,119.62C402.94,120.05 402.1,120.63 401.35,121.36C400.64,122.08 400.08,122.9 399.66,123.81C399.3,124.6 399.05,125.44 398.9,126.29C398.83,126.66 398.66,130.8 398.65,135.12C398.65,139.75 398.83,144.57 398.9,144.97C399.05,145.83 399.3,146.66 399.67,147.46C400.08,148.37 400.64,149.18 401.38,149.93C402.11,150.65 402.95,151.22 403.88,151.64C404.72,152.02 405.6,152.29 406.5,152.44C407.3,152.58 408.2,152.65 409.19,152.65L429.08,152.65L429.08,145.8L408.51,145.8C408.2,145.8 407.94,145.78 407.71,145.74C407.48,145.7 407.26,145.63 407.05,145.54C406.84,145.44 406.64,145.31 406.48,145.14C406.31,144.98 406.18,144.79 406.08,144.57C405.99,144.36 405.92,144.14 405.88,143.91C405.84,143.68 405.82,143.42 405.82,143.12L405.82,142.8L405.82,142.74L405.82,142.43C405.82,142.12 405.84,141.86 405.88,141.63C405.92,141.4 405.99,141.18 406.08,140.97C406.18,140.76 406.31,140.57 406.48,140.4C406.64,140.24 406.84,140.11 407.05,140.01C407.26,139.91 407.48,139.84 407.71,139.81C407.94,139.77 408.2,139.75 408.51,139.75L421.74,139.75C422.7,139.74 423.59,139.68 424.38,139.54C425.28,139.38 426.15,139.12 426.99,138.74C427.93,138.32 428.76,137.74 429.52,137C430.22,136.28 430.79,135.46 431.21,134.56C431.57,133.76 431.82,132.92 431.97,132.07C432.11,131.3 432.17,130.46 432.17,129.49L432.17,128.87C432.17,127.9 432.11,127.06 431.97,126.3"/><path d="M477.77,118.6L484.78,118.6L484.78,153.39L477.77,153.39Z"/><path d="M510.31,118.6L517.31,118.6L517.31,153.39L510.31,153.39Z"/><path d="M494.01,89.66L501.02,89.66L501.02,153.08L494.01,153.08Z"/><path d="M713.91,99.03C713.96,98.74 714.04,98.48 714.17,98.21C714.23,98.05 714.32,97.93 714.41,97.84C714.53,97.72 714.66,97.63 714.82,97.56C715.08,97.44 715.35,97.36 715.63,97.31C716.02,97.25 716.5,97.21 717.08,97.21L742.08,97.21L742.08,89.69L717.08,89.69C716.06,89.69 715.17,89.76 714.36,89.9C713.44,90.06 712.54,90.33 711.7,90.72C710.74,91.15 709.87,91.75 709.09,92.52C708.35,93.27 707.75,94.14 707.32,95.1C706.93,95.95 706.66,96.84 706.5,97.76C706.36,98.56 706.29,99.48 706.29,100.48L706.29,142.96C706.29,143.96 706.36,144.88 706.5,145.69C706.66,146.6 706.93,147.49 707.32,148.34C707.75,149.3 708.35,150.17 709.12,150.95C709.88,151.69 710.74,152.29 711.7,152.72C712.54,153.11 713.44,153.38 714.36,153.54C715.16,153.68 716.08,153.75 717.08,153.75L742.08,153.75L742.08,146.23L717.08,146.23C716.5,146.23 716.02,146.2 715.63,146.13C715.35,146.08 715.08,146 714.81,145.88C714.66,145.8 714.53,145.72 714.44,145.63C714.32,145.51 714.23,145.38 714.17,145.24C714.04,144.97 713.96,144.7 713.91,144.41C713.85,144.03 713.81,143.54 713.81,142.96L713.81,100.48C713.81,99.9 713.85,99.42 713.91,99.03Z"/><path d="M758.49,125.39C757.81,125.39 757.36,125.44 757.11,125.49C756.84,125.53 756.59,125.61 756.34,125.72C756.2,125.79 756.07,125.88 755.94,126C755.84,126.1 755.74,126.25 755.66,126.43C755.53,126.71 755.44,127 755.39,127.31C755.32,127.71 755.28,128.21 755.28,128.79L755.28,142.29C755.28,142.87 755.32,143.37 755.38,143.76C755.44,144.07 755.53,144.37 755.66,144.65C755.74,144.82 755.84,144.98 755.97,145.11C756.07,145.21 756.2,145.29 756.34,145.36C756.6,145.47 756.84,145.55 757.11,145.59C757.36,145.64 757.81,145.69 758.49,145.69L771.12,145.69C771.67,145.69 772.14,145.66 772.51,145.59C772.77,145.55 773.02,145.47 773.27,145.36C773.42,145.29 773.55,145.21 773.67,145.08C773.77,144.98 773.88,144.83 773.96,144.65C774.09,144.37 774.18,144.07 774.23,143.76C774.3,143.37 774.33,142.87 774.33,142.29L774.33,128.79C774.33,128.21 774.3,127.71 774.23,127.32C774.18,127 774.09,126.72 773.96,126.43C773.88,126.25 773.77,126.1 773.64,125.97C773.55,125.88 773.42,125.79 773.26,125.72C773.02,125.61 772.77,125.53 772.5,125.49C772.14,125.42 771.67,125.39 771.12,125.39L758.49,125.39ZM771.12,152.54L758.49,152.54C757.51,152.54 756.61,152.47 755.81,152.34C754.91,152.18 754.02,151.91 753.19,151.54C752.26,151.11 751.42,150.53 750.69,149.82C749.96,149.08 749.39,148.26 748.98,147.36C748.62,146.55 748.35,145.72 748.21,144.87C748.08,144.1 748.01,143.25 748.01,142.29L748.01,128.79C748.01,127.83 748.08,126.98 748.21,126.21C748.35,125.36 748.62,124.53 748.98,123.73C749.39,122.82 749.96,122 750.66,121.29C751.41,120.55 752.26,119.97 753.19,119.55C754.03,119.17 754.91,118.9 755.81,118.74C756.61,118.61 757.51,118.54 758.49,118.54L771.12,118.54C772.1,118.54 773,118.61 773.8,118.74C774.71,118.9 775.58,119.17 776.41,119.54C777.36,119.97 778.2,120.55 778.93,121.26C779.66,122 780.23,122.83 780.64,123.73C781,124.52 781.26,125.35 781.41,126.21C781.54,126.98 781.61,127.84 781.61,128.79L781.61,142.29C781.61,143.24 781.54,144.1 781.41,144.87C781.26,145.73 781,146.56 780.64,147.36C780.23,148.26 779.66,149.08 778.95,149.79C778.2,150.53 777.36,151.11 776.42,151.54C775.59,151.91 774.71,152.18 773.81,152.34C773,152.47 772.12,152.54 771.12,152.54"/><path d="M897.55,141.31C897.55,141.89 897.51,142.38 897.44,142.78C897.39,143.09 897.3,143.37 897.17,143.66C897.09,143.83 896.99,143.98 896.88,144.08C896.76,144.21 896.63,144.29 896.49,144.36C896.23,144.47 895.98,144.55 895.72,144.6C895.35,144.66 894.88,144.69 894.34,144.69L881.71,144.69C881.16,144.69 880.69,144.66 880.33,144.6C880.06,144.55 879.8,144.47 879.56,144.36C879.41,144.29 879.28,144.21 879.19,144.11C879.06,143.98 878.95,143.83 878.87,143.66C878.74,143.37 878.65,143.09 878.6,142.77C878.53,142.39 878.5,141.9 878.5,141.33L878.5,127.87C878.5,127.31 878.53,126.82 878.6,126.43C878.65,126.12 878.74,125.83 878.87,125.55C878.95,125.37 879.06,125.22 879.16,125.12C879.28,125 879.41,124.91 879.55,124.85C879.8,124.74 880.06,124.66 880.32,124.61C880.69,124.55 881.16,124.52 881.71,124.52L894.34,124.52C894.88,124.52 895.35,124.55 895.72,124.61C895.98,124.66 896.24,124.74 896.48,124.85C896.63,124.91 896.76,125 896.85,125.09C896.99,125.22 897.09,125.37 897.17,125.55C897.3,125.83 897.39,126.12 897.44,126.43C897.51,126.83 897.55,127.32 897.55,127.9L897.55,141.31ZM904.62,125.34C904.47,124.49 904.21,123.66 903.85,122.86C903.44,121.96 902.87,121.15 902.14,120.41C901.42,119.71 900.57,119.13 899.63,118.7C898.8,118.33 897.92,118.07 897.02,117.91C896.22,117.78 895.31,117.71 894.34,117.71L881.71,117.71C880.72,117.71 879.83,117.78 879.02,117.91C878.84,117.94 878.67,118 878.5,118.04L878.5,89.68L871.22,89.68L871.22,151.5L894.34,151.5C895.33,151.5 896.21,151.43 897.02,151.3C897.92,151.14 898.8,150.87 899.64,150.5C900.57,150.08 901.41,149.5 902.16,148.76C902.87,148.06 903.44,147.25 903.85,146.34C904.21,145.55 904.47,144.72 904.62,143.87C904.75,143.1 904.82,142.26 904.82,141.31L904.82,127.9C904.82,126.95 904.75,126.09 904.62,125.34"/><path d="M816.32,89.58L823.32,89.58L823.32,153L816.32,153Z"/><path d="M789.93,132.55L789.93,139.2L806.95,139.2L806.95,132.55L789.93,132.55L789.93,132.55Z"/><path d="M857.4,142.98C857.4,143.29 857.38,143.56 857.34,143.79C857.34,143.83 857.31,143.86 857.31,143.9C857.27,144.1 857.21,144.29 857.13,144.47C857.03,144.69 856.9,144.88 856.73,145.05C856.56,145.22 856.37,145.35 856.15,145.45C855.93,145.55 855.71,145.61 855.47,145.66C855.24,145.7 854.97,145.72 854.66,145.72L841.07,145.72C840.77,145.72 840.5,145.7 840.26,145.66C840.03,145.61 839.8,145.55 839.58,145.45C839.37,145.35 839.17,145.22 839,145.05C838.84,144.88 838.7,144.69 838.6,144.47C838.5,144.25 838.43,144.03 838.39,143.79C838.36,143.56 838.33,143.29 838.33,142.98L838.33,141.36L838.34,142.66L838.34,141.03C838.34,140.72 838.36,140.45 838.4,140.22C838.44,139.99 838.51,139.76 838.61,139.55C838.71,139.33 838.84,139.14 839.01,138.96C839.18,138.8 839.37,138.66 839.59,138.57C839.81,138.47 840.03,138.4 840.27,138.36C840.5,138.32 840.77,138.3 841.08,138.3L851.3,138.3C851.32,138.3 851.34,138.29 851.36,138.29L852.98,138.29L852.98,138.3L854.65,138.3C854.96,138.3 855.23,138.32 855.47,138.36C855.7,138.4 855.93,138.47 856.15,138.57C856.36,138.66 856.56,138.8 856.73,138.96C856.9,139.14 857.03,139.33 857.13,139.55C857.21,139.73 857.27,139.93 857.31,140.14C857.32,140.16 857.33,140.19 857.34,140.22C857.37,140.45 857.4,140.72 857.4,141.03L857.4,142.66L857.4,141.36L857.4,142.98ZM864.54,131.75L864.54,131.44L864.53,131.44C864.48,128.66 864.39,126.48 864.34,126.22C864.19,125.36 863.93,124.52 863.57,123.73C863.16,122.82 862.59,122 861.86,121.26C861.13,120.54 860.29,119.96 859.36,119.55C858.53,119.17 857.64,118.9 856.74,118.74C855.94,118.61 855.04,118.54 854.06,118.54L833.2,118.54L833.2,125.39L854.74,125.39C855.04,125.39 855.3,125.41 855.53,125.45C855.76,125.49 855.98,125.56 856.19,125.65C856.41,125.75 856.59,125.88 856.76,126.04C856.92,126.21 857.06,126.4 857.15,126.61C857.24,126.79 857.28,126.98 857.32,127.17C857.33,127.21 857.35,127.24 857.36,127.28C857.4,127.5 857.41,127.77 857.41,128.07L857.42,128.39L857.42,128.45L857.41,128.76C857.41,129.06 857.4,129.33 857.36,129.56C857.35,129.59 857.33,129.63 857.32,129.66C857.28,129.85 857.24,130.04 857.15,130.22C857.06,130.43 856.92,130.62 856.76,130.79C856.59,130.95 856.41,131.08 856.19,131.18C855.98,131.28 855.76,131.34 855.53,131.38C855.3,131.42 855.04,131.44 854.75,131.44L841.5,131.44C840.54,131.44 839.65,131.51 838.86,131.65C837.96,131.8 837.08,132.07 836.25,132.45C835.31,132.87 834.47,133.45 833.72,134.19C833.01,134.9 832.45,135.72 832.03,136.63C831.67,137.43 831.41,138.26 831.27,139.12C831.13,139.89 831.07,140.73 831.07,141.7L831.07,142.32C831.07,143.28 831.13,144.13 831.27,144.89C831.41,145.75 831.67,146.59 832.03,147.38C832.44,148.29 833.01,149.11 833.75,149.85C834.47,150.57 835.31,151.14 836.25,151.57C837.09,151.95 837.97,152.22 838.87,152.37C839.67,152.51 840.38,152.54 841.55,152.57C841.55,152.57 844.66,152.61 847.3,152.61C849.65,152.61 853.13,152.58 853.89,152.58L864.54,152.58L864.54,139.85C864.56,138.67 864.58,137.38 864.58,136.07C864.58,134.6 864.56,133.11 864.54,131.75"/><path d="M160.53,118.24L149.23,144.6L137.72,118.24L130.19,118.24L145.47,153.36L138.22,170.29L145.68,170.29L168.03,118.24L160.53,118.24Z"/><path d="M96.14,99.01C96.19,98.72 96.27,98.46 96.39,98.19C96.46,98.04 96.55,97.91 96.63,97.82C96.75,97.7 96.88,97.61 97.04,97.54C97.3,97.42 97.57,97.34 97.85,97.29C98.24,97.23 98.73,97.19 99.3,97.19L124.3,97.19L124.3,89.67L99.3,89.67C98.31,89.67 97.39,89.74 96.58,89.88C95.66,90.04 94.77,90.31 93.92,90.7C92.96,91.13 92.1,91.73 91.32,92.5C90.58,93.25 89.98,94.12 89.54,95.08C89.16,95.93 88.88,96.82 88.72,97.74C88.59,98.55 88.51,99.46 88.51,100.46L88.51,142.95C88.51,143.94 88.59,144.86 88.73,145.67C88.88,146.58 89.16,147.47 89.54,148.32C89.98,149.28 90.58,150.15 91.35,150.93C92.1,151.67 92.96,152.27 93.92,152.7C94.77,153.09 95.66,153.36 96.58,153.52C97.4,153.66 98.29,153.73 99.3,153.73L124.3,153.73L124.3,146.21L99.3,146.21C98.73,146.21 98.24,146.18 97.86,146.11C97.57,146.06 97.3,145.98 97.03,145.86C96.88,145.79 96.76,145.7 96.66,145.61C96.55,145.49 96.46,145.36 96.39,145.21C96.27,144.95 96.19,144.68 96.14,144.39C96.07,144.01 96.04,143.52 96.04,142.95L96.04,100.46C96.04,99.89 96.07,99.4 96.14,99.01Z"/><path d="M238.81,142.26C238.81,142.84 238.78,143.34 238.71,143.74C238.66,144.05 238.57,144.34 238.44,144.63C238.36,144.8 238.25,144.95 238.15,145.06C238.03,145.18 237.9,145.27 237.75,145.33C237.5,145.45 237.25,145.53 236.98,145.57C236.61,145.63 236.15,145.67 235.6,145.67L222.97,145.67C222.42,145.67 221.96,145.63 221.59,145.57C221.32,145.53 221.07,145.45 220.83,145.34C220.68,145.27 220.55,145.18 220.45,145.09C220.32,144.95 220.22,144.8 220.14,144.63C220.01,144.34 219.92,144.05 219.87,143.74C219.8,143.34 219.76,142.84 219.76,142.26L219.76,128.77C219.76,128.19 219.8,127.69 219.87,127.29C219.92,126.98 220.01,126.69 220.14,126.41C220.22,126.23 220.32,126.08 220.42,125.98C220.55,125.85 220.68,125.77 220.82,125.7C221.07,125.59 221.33,125.51 221.59,125.46C221.96,125.4 222.42,125.37 222.97,125.37L235.6,125.37C236.15,125.37 236.62,125.4 236.98,125.46C237.25,125.51 237.5,125.59 237.75,125.7C237.9,125.77 238.03,125.85 238.12,125.95C238.25,126.08 238.36,126.23 238.43,126.4C238.57,126.69 238.66,126.98 238.71,127.29C238.78,127.69 238.81,128.19 238.81,128.77L238.81,142.26ZM245.89,126.19C245.74,125.34 245.48,124.5 245.12,123.7C244.7,122.8 244.14,121.98 243.4,121.24C242.68,120.52 241.84,119.94 240.9,119.52C240.06,119.14 239.19,118.87 238.28,118.72C237.47,118.58 236.6,118.51 235.6,118.51L222.97,118.51C221.97,118.51 221.1,118.58 220.29,118.72C219.39,118.87 218.51,119.14 217.67,119.52C216.74,119.95 215.89,120.52 215.14,121.27C214.43,121.98 213.87,122.8 213.46,123.71C213.09,124.5 212.83,125.34 212.69,126.19C212.56,126.96 212.49,127.81 212.49,128.77L212.49,142.26C212.49,143.23 212.56,144.07 212.69,144.84C212.83,145.7 213.09,146.53 213.46,147.33C213.87,148.23 214.43,149.05 215.17,149.79C215.89,150.51 216.73,151.08 217.68,151.51C218.51,151.89 219.39,152.16 220.29,152.31C221.1,152.45 221.97,152.52 222.97,152.52L235.6,152.52C236.6,152.52 237.48,152.45 238.28,152.31C239.18,152.16 240.06,151.89 240.9,151.51C241.84,151.08 242.68,150.51 243.44,149.77C244.14,149.05 244.7,148.23 245.12,147.33C245.48,146.53 245.74,145.7 245.89,144.84C246.02,144.07 246.09,143.23 246.09,142.26L246.09,128.77C246.09,127.81 246.02,126.96 245.89,126.19"/><path d="M307.9,142.38C307.9,142.96 307.87,143.46 307.8,143.86C307.75,144.17 307.66,144.46 307.53,144.74C307.45,144.92 307.34,145.07 307.24,145.17C307.12,145.29 306.99,145.38 306.85,145.45C306.59,145.56 306.34,145.64 306.08,145.68C305.71,145.74 305.24,145.78 304.69,145.78L292.06,145.78C291.51,145.78 291.05,145.74 290.68,145.68C290.41,145.64 290.16,145.56 289.92,145.45C289.77,145.38 289.64,145.29 289.55,145.2C289.41,145.07 289.31,144.92 289.23,144.74C289.1,144.46 289.01,144.17 288.96,143.85C288.89,143.46 288.85,142.96 288.85,142.38L288.85,128.92C288.85,128.34 288.89,127.85 288.96,127.45C289.01,127.14 289.1,126.85 289.23,126.57C289.31,126.39 289.41,126.24 289.51,126.13C289.64,126.01 289.77,125.93 289.91,125.86C290.16,125.75 290.42,125.67 290.68,125.62C291.05,125.56 291.51,125.53 292.06,125.53L304.69,125.53C305.24,125.53 305.71,125.56 306.07,125.62C306.34,125.67 306.59,125.75 306.84,125.86C306.99,125.93 307.12,126.01 307.21,126.11C307.34,126.24 307.45,126.39 307.53,126.56C307.66,126.85 307.75,127.14 307.8,127.45C307.87,127.85 307.9,128.34 307.9,128.92L307.9,142.38ZM314.98,126.35C314.83,125.5 314.57,124.66 314.21,123.87C313.8,122.97 313.23,122.15 312.5,121.41C311.77,120.7 310.93,120.12 309.98,119.69C309.16,119.32 308.28,119.05 307.37,118.89C306.57,118.76 305.69,118.69 304.69,118.69L292.06,118.69C291.07,118.69 290.19,118.76 289.38,118.89C288.48,119.05 287.6,119.32 286.76,119.7C285.83,120.12 284.98,120.7 284.23,121.44C283.53,122.15 282.96,122.96 282.55,123.87C282.19,124.66 281.93,125.5 281.78,126.35C281.65,127.12 281.58,127.96 281.58,128.92L281.58,142.38C281.58,143.34 281.65,144.19 281.78,144.95C281.93,145.81 282.19,146.64 282.55,147.44C282.96,148.34 283.53,149.16 284.26,149.9C284.98,150.61 285.82,151.18 286.77,151.61C287.6,151.99 288.49,152.26 289.38,152.41C290.19,152.55 291.07,152.61 292.06,152.61L304.69,152.61C305.69,152.61 306.57,152.55 307.37,152.41C307.55,152.38 307.73,152.32 307.9,152.29L307.9,158.38C307.9,158.95 307.87,159.44 307.8,159.83C307.74,160.12 307.65,160.4 307.52,160.67C307.43,160.84 307.33,160.99 307.21,161.1C307.07,161.23 306.92,161.33 306.74,161.41C306.44,161.54 306.14,161.62 305.83,161.67C305.41,161.74 304.9,161.77 304.29,161.77L285.22,161.77L285.22,168.61L304.29,168.61C305.31,168.61 306.24,168.55 307.06,168.41C307.99,168.26 308.89,168 309.74,167.64C310.71,167.22 311.58,166.66 312.36,165.93C313.1,165.22 313.7,164.41 314.14,163.5C314.53,162.69 314.81,161.85 314.96,160.98C315.1,160.21 315.18,159.34 315.18,158.38L315.18,128.92C315.18,127.96 315.11,127.12 314.98,126.35"/><path d="M200.11,141.29C200.11,141.86 200.08,142.36 200.01,142.76C199.96,143.07 199.86,143.35 199.73,143.64C199.66,143.81 199.55,143.96 199.45,144.07C199.33,144.18 199.2,144.27 199.06,144.34C198.8,144.45 198.55,144.53 198.28,144.58C197.91,144.64 197.45,144.67 196.9,144.67L184.27,144.67C183.59,144.67 183.14,144.62 182.89,144.58C182.62,144.53 182.37,144.45 182.13,144.34C181.97,144.27 181.85,144.18 181.75,144.09C181.62,143.96 181.52,143.81 181.44,143.64C181.31,143.35 181.22,143.07 181.17,142.75C181.1,142.36 181.06,141.87 181.06,141.29L181.06,127.88C181.06,127.3 181.1,126.81 181.17,126.41C181.22,126.1 181.31,125.81 181.44,125.53C181.52,125.35 181.62,125.21 181.73,125.1C181.85,124.98 181.97,124.89 182.12,124.83C182.37,124.71 182.63,124.64 182.89,124.59C183.14,124.55 183.59,124.5 184.27,124.5L196.9,124.5C197.45,124.5 197.92,124.53 198.28,124.59C198.55,124.64 198.8,124.71 199.05,124.82C199.2,124.89 199.33,124.98 199.42,125.07C199.55,125.2 199.66,125.35 199.73,125.53C199.86,125.81 199.96,126.1 200.01,126.41C200.08,126.81 200.11,127.3 200.11,127.88L200.11,141.29ZM207.18,125.32C207.04,124.47 206.78,123.64 206.42,122.85C206.01,121.95 205.44,121.13 204.7,120.39C203.98,119.68 203.14,119.11 202.19,118.68C201.36,118.31 200.48,118.04 199.58,117.89C198.77,117.75 197.9,117.69 196.9,117.69L184.27,117.69C183.27,117.69 182.4,117.75 181.59,117.89C181.41,117.92 181.24,117.97 181.06,118.01L181.06,89.66L173.79,89.66L173.79,151.48L196.9,151.48C197.9,151.48 198.78,151.41 199.58,151.27C200.48,151.12 201.36,150.85 202.21,150.48C203.14,150.05 203.98,149.48 204.73,148.74C205.44,148.03 206.01,147.22 206.42,146.32C206.78,145.53 207.04,144.7 207.18,143.85C207.31,143.09 207.38,142.23 207.38,141.29L207.38,127.88C207.38,126.94 207.31,126.07 207.18,125.32"/><path d="M251.34,118.52L251.34,153.55L258.4,153.55L258.4,129.08C258.4,128.5 258.44,127.99 258.51,127.59C258.56,127.29 258.65,127 258.78,126.71C258.86,126.53 258.96,126.39 259.07,126.28C259.21,126.14 259.36,126.03 259.54,125.95C259.83,125.82 260.11,125.74 260.41,125.68C260.82,125.61 261.32,125.58 261.91,125.58L277.28,125.58L277.28,118.52L251.34,118.52Z"/></svg>