<svg xmlns="http://www.w3.org/2000/svg" viewBox="230.27 216.22 385.35 162.34"><path fill="#46288B" d="M358.91,324.27s0-.01,0-.02c0,0,0-.01-.01-.02l-10.76-10.76s0-.01-.02-.01c0,0-.01-.01-.02-.01s-.01,0-.02,0c-.01,0-.01,0-.02,0s-.02.01-.02.01t-.02.01l-3.98,3.98-4.27,4.27c-.22.22-.42.43-.65.65l-2.16,2.16c-4.04,4.04-7.25,7.12-9.65,9.24-2.39,2.12-4.84,3.83-7.34,5.13-2.5,1.3-5.03,1.95-7.6,1.95-2.56,0-5.1-.65-7.6-1.95-2.5-1.3-4.94-3.01-7.34-5.13-2.4-2.12-5.61-5.2-9.65-9.24l-2.16-2.16c-2.64-2.64-4.87-4.93-6.69-6.87l-4.72-4.72c-2.53-2.53-4.44-4.49-5.73-5.89-1.29-1.39-2.26-2.67-2.91-3.82s-.98-2.26-.99-3.34c.01-1.07.34-2.18.99-3.33.65-1.15,1.62-2.42,2.91-3.82,1.29-1.4,3.2-3.36,5.73-5.89l5.15-5.15c.47-.47.91-.91,1.34-1.33,1.44-1.5,3.08-3.16,4.92-5l2.16-2.16c4.04-4.04,7.25-7.12,9.65-9.24,2.39-2.12,4.84-3.83,7.34-5.13,2.5-1.3,5.03-1.95,7.59-1.95,2.57,0,5.1.65,7.59,1.95,2.5,1.3,4.94,3.01,7.34,5.13,2.4,2.12,5.61,5.2,9.65,9.24l2.16,2.16c1.14,1.14,2.19,2.2,3.18,3.21,0,0,0,0,.01,0h.01s.02-.01.02-.02l10.78-10.78s.02-.01.02-.02,0-.01.01-.02v-.04s-.01-.02-.01-.02c0-.01-.01-.01-.02-.02l-10.78-10.78s-.01-.01-.01-.01l-20.3-20.3c-.06-.08-.11-.16-.17-.23l-8.12-8.11c-.12-.13-.26-.23-.4-.31-.15-.08-.31-.15-.47-.19-.16-.05-.32-.07-.49-.07-.16,0-.33.02-.48.07-.17.04-.32.11-.47.19-.14.08-.28.18-.4.31l-.8.8h-.01c-.47.44-1.13,1.09-1.99,1.95l-1.59,1.59-56.37,56.36-.04-.04-10.92,10.93,63.45,63.45c.06.07.1.14.16.21l8.12,8.11c.12.13.25.23.4.31.15.08.3.15.47.19.15.05.32.07.48.07.17,0,.33-.02.49-.07.16-.04.32-.11.47-.19.14-.08.28-.18.4-.31l8.12-8.11s.05-.07.08-.11l26.1-26.1s.01,0,.02.01h.04s.02-.01.02-.01c.01,0,.01-.01.02-.02l10.76-10.76s.01-.01.01-.02c0,0,0-.01,0-.02.01,0,.01-.01.01-.02,0,0,0-.01-.01-.02Z"/><path fill="#46288B" d="M607.35,324.27s0-.01,0-.02c0,0,0-.01-.01-.02l-10.76-10.76s0-.01-.02-.01c0,0-.01-.01-.02-.01s-.01,0-.02,0c-.01,0-.01,0-.02,0s-.02.01-.02.01t-.02.01l-3.98,3.98-4.27,4.27c-.22.22-.42.43-.65.65l-2.16,2.16c-4.04,4.04-7.25,7.12-9.65,9.24-2.39,2.12-4.84,3.83-7.34,5.13-2.5,1.3-5.03,1.95-7.59,1.95-2.56,0-5.1-.65-7.6-1.95-2.5-1.3-4.94-3.01-7.34-5.13-2.4-2.12-5.61-5.2-9.65-9.24l-2.16-2.16c-2.64-2.64-4.87-4.93-6.69-6.87l-4.72-4.72c-2.53-2.53-4.44-4.49-5.73-5.89-1.29-1.4-2.26-2.67-2.91-3.82s-.98-2.26-.99-3.34c.01-1.07.34-2.18.99-3.33.65-1.15,1.62-2.42,2.91-3.82,1.29-1.4,3.2-3.36,5.73-5.89l5.15-5.15c.47-.47.91-.91,1.34-1.33,1.44-1.5,3.08-3.16,4.92-5l2.16-2.16c4.04-4.04,7.25-7.12,9.65-9.24,2.39-2.12,4.84-3.83,7.34-5.13,2.5-1.3,5.03-1.95,7.59-1.95,2.57,0,5.1.65,7.59,1.95,2.5,1.3,4.94,3.01,7.34,5.13,2.4,2.12,5.61,5.2,9.65,9.24l2.16,2.16c1.14,1.14,2.19,2.2,3.18,3.21,0,0,0,0,.01,0h.01s.02-.01.02-.02l10.78-10.78s.02-.01.02-.02,0-.01.01-.02v-.04s-.01-.02-.01-.02c0-.01-.01-.01-.02-.02l-10.78-10.78s-.01-.01-.01-.01l-20.3-20.3c-.06-.08-.11-.16-.17-.23l-8.12-8.11c-.12-.13-.26-.23-.4-.31-.15-.08-.31-.15-.47-.19-.16-.05-.32-.07-.49-.07-.16,0-.33.02-.48.07-.17.04-.32.11-.47.19-.14.08-.28.18-.4.31l-.8.8h-.01c-.47.44-1.13,1.09-1.99,1.95l-1.59,1.59-56.37,56.36-.04-.04-8.7,8.71-.4-.32c-1.05,1.33-5.81,4.53-7.56,5.5-1.87,1.03-3.87,1.71-6.12,2.08-2.6.43-5.17.61-7.65.52-2.75-.08-6.27-.32-10.46-.71h0c-4.7-.45-8.68-.72-11.83-.82-.68-.02-1.36-.02-2.05-.01l26.33-26.34,7.24-7.24c.12-.12.22-.25.31-.4.08-.15.14-.3.19-.46.04-.16.07-.33.07-.49,0-.17-.03-.33-.07-.49-.05-.16-.11-.31-.19-.46,0-.01-.02-.02-.02-.03-.01-.01-.01-.02-.02-.03-.08-.15-.18-.29-.3-.41l-31.43-31.43-8.1-8.09c-.12-.13-.26-.23-.4-.31-.15-.08-.31-.15-.47-.19-.16-.05-.32-.07-.49-.07-.16,0-.32.02-.48.07-.16.04-.32.11-.47.19-.14.08-.28.18-.4.31l-64.49,64.48c-.1.1-.18.22-.25.34l-.27.28-6.65,6.65,4.61,4.61c.06.1.12.19.21.28l44.31,44.25,18.59,18.58h.01s3.91,3.89,3.91,3.89c.12.13.26.23.41.31.15.09.31.15.47.2.16.04.33.07.49.07.17,0,.34-.03.5-.07.16-.05.32-.11.47-.2.15-.08.29-.18.41-.31l8.21-8.21c.12-.12.22-.26.31-.41.08-.15.15-.3.19-.47.05-.16.07-.32.07-.49s-.02-.33-.07-.5c-.04-.16-.11-.31-.19-.47-.08-.14-.19-.28-.31-.41l-23.79-23.75c.84-2.66,1.63-4.88,2.34-6.61.66-1.6,1.61-3.19,2.84-4.75,1.05-1.33,2.41-2.44,4.15-3.41,1.88-1.03,3.88-1.72,6.13-2.08,2.59-.43,5.17-.61,7.65-.53,2.75.09,6.27.33,10.46.72h0c4.7.44,8.67.72,11.83.82.54.01,1.09.02,1.64.02,2.96,0,5.97-.25,8.99-.74,3.96-.65,7.69-1.93,11.08-3.8,2.33-1.29,5.88-3.71,8.7-6.05l53.05,53.05c.06.07.1.14.16.21l8.12,8.11c.12.13.25.23.4.31.15.08.3.15.47.19.15.05.32.07.48.07.17,0,.33-.02.49-.07.16-.04.32-.11.47-.19.14-.08.28-.18.4-.31l8.12-8.11s.05-.07.08-.11l26.1-26.1s.01,0,.02.01h.04s.02-.01.02-.01c.01,0,.01-.01.02-.02l10.76-10.76s.01-.01.01-.02c0,0,0-.01,0-.02.01,0,.01-.01.01-.02,0,0,0-.01-.01-.02ZM414.87,308.77h0s-.59.59-.59.59c-1.64,1.64-2.92,2.88-3.82,3.72-.91.84-1.73,1.47-2.48,1.89-.75.42-1.47.64-2.17.64-.7,0-1.42-.22-2.17-.64s-1.57-1.05-2.48-1.89c-.91-.84-2.18-2.08-3.82-3.72l-3.35-3.35c-1.64-1.64-2.88-2.92-3.72-3.83-.84-.91-1.47-1.73-1.89-2.48s-.64-1.47-.64-2.17c0-.7.22-1.42.64-2.17s1.05-1.57,1.89-2.48c.84-.91,2.08-2.18,3.72-3.82l3.35-3.35c.06-.06.11-.11.17-.17l28.84-28.84s.05-.06.08-.09c1.14-1.14,2.22-2.07,3.24-2.79,1.01-.72,2.11-1.3,3.28-1.74s2.38-.66,3.63-.67c1.25,0,2.46.23,3.63.67s2.26,1.02,3.28,1.73c1.01.72,2.09,1.65,3.24,2.79s2.07,2.22,2.79,3.24c.72,1.01,1.29,2.11,1.73,3.28.44,1.17.66,2.38.67,3.63,0,1.25-.23,2.46-.67,3.63-.44,1.17-1.02,2.26-1.73,3.28-.72,1.01-1.65,2.09-2.79,3.24h0s-31.85,31.85-31.85,31.85Z"/><path fill="#B7D32D" d="M239.04,292.12c0-.73.02-1.34.06-1.81.04-.48.13-.94.29-1.4s.41-.85.75-1.2c.34-.34.74-.6,1.2-.75s.92-.25,1.4-.29c.48-.04,1.08-.05,1.81-.05h10.97c.73,0,1.34.02,1.81.05.48.04.94.13,1.4.29s.85.41,1.2.75c.34.34.6.74.75,1.2s.25.92.29,1.4c.04.48.05,1.08.05,1.81v10.97c0,.73-.02,1.34-.05,1.81-.04.48-.13.94-.29,1.4-.16.46-.41.85-.75,1.2-.34.34-.74.6-1.2.75-.45.16-.92.25-1.4.29-.48.04-1.08.05-1.81.05h-10.97c-.73,0-1.34-.02-1.81-.05-.48-.04-.94-.13-1.4-.29-.45-.16-.85-.41-1.2-.75-.34-.34-.6-.74-.75-1.2-.16-.45-.25-.92-.29-1.4-.04-.48-.06-1.08-.06-1.81v-10.97Z"/><path fill="#B7D32D" d="M363.37,292.12c0-.73.02-1.34.06-1.81.04-.48.13-.94.29-1.4s.41-.85.75-1.2c.34-.34.74-.6,1.2-.75s.92-.25,1.4-.29c.48-.04,1.08-.05,1.81-.05h10.97c.73,0,1.34.02,1.81.05.48.04.94.13,1.4.29s.85.41,1.2.75c.34.34.6.74.75,1.2s.25.92.29,1.4c.04.48.05,1.08.05,1.81v10.97c0,.73-.02,1.34-.05,1.81-.04.48-.13.94-.29,1.4-.16.46-.41.85-.75,1.2-.34.34-.74.6-1.2.75-.45.16-.92.25-1.4.29-.48.04-1.08.05-1.81.05h-10.97c-.73,0-1.34-.02-1.81-.05-.48-.04-.94-.13-1.4-.29-.45-.16-.85-.41-1.2-.75-.34-.34-.6-.74-.75-1.2-.16-.45-.25-.92-.29-1.4-.04-.48-.06-1.08-.06-1.81v-10.97Z"/><path fill="#B7D32D" d="M487.71,292.12c0-.73.02-1.34.06-1.81.04-.48.13-.94.29-1.4s.41-.85.75-1.2c.34-.34.74-.6,1.2-.75s.92-.25,1.4-.29c.48-.04,1.08-.05,1.81-.05h10.97c.73,0,1.34.02,1.81.05.48.04.94.13,1.4.29s.85.41,1.2.75c.34.34.6.74.75,1.2s.25.92.29,1.4c.04.48.05,1.08.05,1.81v10.97c0,.73-.02,1.34-.05,1.81-.04.48-.13.94-.29,1.4-.16.46-.41.85-.75,1.2-.34.34-.74.6-1.2.75-.45.16-.92.25-1.4.29-.48.04-1.08.05-1.81.05h-10.97c-.73,0-1.34-.02-1.81-.05-.48-.04-.94-.13-1.4-.29-.45-.16-.85-.41-1.2-.75-.34-.34-.6-.74-.75-1.2-.16-.45-.25-.92-.29-1.4-.04-.48-.06-1.08-.06-1.81v-10.97Z"/></svg>
